# xmcd
#
# Track frame offsets:
# 150
# 9391
# 26205
# 43029
# 52891
# 65073
# 74781
# 87586
# 101636
# 115125
# 131299
# 144880
# 163564
#
# Disc length: 2343 seconds
#
#
# Revision: 1
# Processed by: cddbd v1.5.2PL0 Copyright (c) Steve Scherf et al.
# Submitted via: MfcCDDB 1.28 
#
DISCID=b409250d
DTITLE=Brand New Strings - No Strings Attached
DYEAR=2010
DGENRE=Bluegrass
TTITLE0=Merry Go Round
TTITLE1=Rainy Nights and Memories
TTITLE2=Law of the Land
TTITLE3=Caught Up
TTITLE4=Wheels
TTITLE5=Living Water
TTITLE6=The Blues Club
TTITLE7=High on a Hilltop
TTITLE8=When My Feet Touch the Street of Gold
TTITLE9=I Feel the Same Way Too
TTITLE10=Who Am I
TTITLE11=Prayer From Home
TTITLE12=The First Date
EXTD=
EXTT0=
EXTT1=
EXTT2=
EXTT3=
EXTT4=
EXTT5=
EXTT6=
EXTT7=
EXTT8=
EXTT9=
EXTT10=
EXTT11=
EXTT12=
PLAYORDER=
